<?xml version="1.0" standalone="no"?>
<!DOCTYPE svg PUBLIC "-//W3C//DTD SVG 20010904//EN"
 "http://www.w3.org/TR/2001/REC-SVG-20010904/DTD/svg10.dtd">
<svg version="1.0" xmlns="http://www.w3.org/2000/svg"
 width="225.000000pt" height="225.000000pt" viewBox="0 0 225.000000 225.000000"
 preserveAspectRatio="xMidYMid meet">

<g transform="translate(0.000000,225.000000) scale(0.100000,-0.100000)"
fill="#000000" stroke="none">
<path d="M540 1355 l0 -355 195 0 195 0 0 155 0 155 160 0 160 0 0 200 0 200
-355 0 -355 0 0 -355z"/>
<path d="M1000 1125 l0 -125 125 0 125 0 0 125 0 125 -125 0 -125 0 0 -125z"/>
<path d="M1310 1090 l0 -160 -155 0 -155 0 0 -195 0 -195 355 0 355 0 0 355 0
355 -200 0 -200 0 0 -160z"/>
</g>
</svg>
